<svg xmlns="http://www.w3.org/2000/svg" width="16" height="16" viewBox="0 0 16 16" shape-rendering="crispEdges"><rect x="0" y="0" width="16" height="1" fill="#2a2926"/><rect x="0" y="1" width="1" height="1" fill="#2a2926"/><rect x="1" y="1" width="3" height="1" fill="#000000"/><rect x="4" y="1" width="1" height="1" fill="#2a2926"/><rect x="5" y="1" width="3" height="1" fill="#0000aa"/><rect x="8" y="1" width="1" height="1" fill="#2a2926"/><rect x="9" y="1" width="3" height="1" fill="#00aa00"/><rect x="12" y="1" width="1" height="1" fill="#2a2926"/><rect x="13" y="1" width="3" height="1" fill="#00aaaa"/><rect x="0" y="2" width="1" height="1" fill="#2a2926"/><rect x="1" y="2" width="3" height="1" fill="#000000"/><rect x="4" y="2" width="1" height="1" fill="#2a2926"/><rect x="5" y="2" width="3" height="1" fill="#0000aa"/><rect x="8" y="2" width="1" height="1" fill="#2a2926"/><rect x="9" y="2" width="3" height="1" fill="#00aa00"/><rect x="12" y="2" width="1" height="1" fill="#2a2926"/><rect x="13" y="2" width="3" height="1" fill="#00aaaa"/><rect x="0" y="3" width="1" height="1" fill="#2a2926"/><rect x="1" y="3" width="3" height="1" fill="#000000"/><rect x="4" y="3" width="1" height="1" fill="#2a2926"/><rect x="5" y="3" width="3" height="1" fill="#0000aa"/><rect x="8" y="3" width="1" height="1" fill="#2a2926"/><rect x="9" y="3" width="3" height="1" fill="#00aa00"/><rect x="12" y="3" width="1" height="1" fill="#2a2926"/><rect x="13" y="3" width="3" height="1" fill="#00aaaa"/><rect x="0" y="4" width="16" height="1" fill="#2a2926"/><rect x="0" y="5" width="1" height="1" fill="#2a2926"/><rect x="1" y="5" width="3" height="1" fill="#aa0000"/><rect x="4" y="5" width="1" height="1" fill="#2a2926"/><rect x="5" y="5" width="3" height="1" fill="#aa00aa"/><rect x="8" y="5" width="1" height="1" fill="#2a2926"/><rect x="9" y="5" width="3" height="1" fill="#ffaa00"/><rect x="12" y="5" width="1" height="1" fill="#2a2926"/><rect x="13" y="5" width="3" height="1" fill="#aaaaaa"/><rect x="0" y="6" width="1" height="1" fill="#2a2926"/><rect x="1" y="6" width="3" height="1" fill="#aa0000"/><rect x="4" y="6" width="1" height="1" fill="#2a2926"/><rect x="5" y="6" width="3" height="1" fill="#aa00aa"/><rect x="8" y="6" width="1" height="1" fill="#2a2926"/><rect x="9" y="6" width="3" height="1" fill="#ffaa00"/><rect x="12" y="6" width="1" height="1" fill="#2a2926"/><rect x="13" y="6" width="3" height="1" fill="#aaaaaa"/><rect x="0" y="7" width="1" height="1" fill="#2a2926"/><rect x="1" y="7" width="3" height="1" fill="#aa0000"/><rect x="4" y="7" width="1" height="1" fill="#2a2926"/><rect x="5" y="7" width="3" height="1" fill="#aa00aa"/><rect x="8" y="7" width="1" height="1" fill="#2a2926"/><rect x="9" y="7" width="3" height="1" fill="#ffaa00"/><rect x="12" y="7" width="1" height="1" fill="#2a2926"/><rect x="13" y="7" width="3" height="1" fill="#aaaaaa"/><rect x="0" y="8" width="16" height="1" fill="#2a2926"/><rect x="0" y="9" width="1" height="1" fill="#2a2926"/><rect x="1" y="9" width="3" height="1" fill="#555555"/><rect x="4" y="9" width="1" height="1" fill="#2a2926"/><rect x="5" y="9" width="3" height="1" fill="#5555ff"/><rect x="8" y="9" width="1" height="1" fill="#2a2926"/><rect x="9" y="9" width="3" height="1" fill="#55ff55"/><rect x="12" y="9" width="1" height="1" fill="#2a2926"/><rect x="13" y="9" width="3" height="1" fill="#55ffff"/><rect x="0" y="10" width="1" height="1" fill="#2a2926"/><rect x="1" y="10" width="3" height="1" fill="#555555"/><rect x="4" y="10" width="1" height="1" fill="#2a2926"/><rect x="5" y="10" width="3" height="1" fill="#5555ff"/><rect x="8" y="10" width="1" height="1" fill="#2a2926"/><rect x="9" y="10" width="3" height="1" fill="#55ff55"/><rect x="12" y="10" width="1" height="1" fill="#2a2926"/><rect x="13" y="10" width="3" height="1" fill="#55ffff"/><rect x="0" y="11" width="1" height="1" fill="#2a2926"/><rect x="1" y="11" width="3" height="1" fill="#555555"/><rect x="4" y="11" width="1" height="1" fill="#2a2926"/><rect x="5" y="11" width="3" height="1" fill="#5555ff"/><rect x="8" y="11" width="1" height="1" fill="#2a2926"/><rect x="9" y="11" width="3" height="1" fill="#55ff55"/><rect x="12" y="11" width="1" height="1" fill="#2a2926"/><rect x="13" y="11" width="3" height="1" fill="#55ffff"/><rect x="0" y="12" width="16" height="1" fill="#2a2926"/><rect x="0" y="13" width="1" height="1" fill="#2a2926"/><rect x="1" y="13" width="3" height="1" fill="#ff5555"/><rect x="4" y="13" width="1" height="1" fill="#2a2926"/><rect x="5" y="13" width="3" height="1" fill="#ff55ff"/><rect x="8" y="13" width="1" height="1" fill="#2a2926"/><rect x="9" y="13" width="3" height="1" fill="#ffff55"/><rect x="12" y="13" width="1" height="1" fill="#2a2926"/><rect x="13" y="13" width="3" height="1" fill="#ffffff"/><rect x="0" y="14" width="1" height="1" fill="#2a2926"/><rect x="1" y="14" width="3" height="1" fill="#ff5555"/><rect x="4" y="14" width="1" height="1" fill="#2a2926"/><rect x="5" y="14" width="3" height="1" fill="#ff55ff"/><rect x="8" y="14" width="1" height="1" fill="#2a2926"/><rect x="9" y="14" width="3" height="1" fill="#ffff55"/><rect x="12" y="14" width="1" height="1" fill="#2a2926"/><rect x="13" y="14" width="3" height="1" fill="#ffffff"/><rect x="0" y="15" width="1" height="1" fill="#2a2926"/><rect x="1" y="15" width="3" height="1" fill="#ff5555"/><rect x="4" y="15" width="1" height="1" fill="#2a2926"/><rect x="5" y="15" width="3" height="1" fill="#ff55ff"/><rect x="8" y="15" width="1" height="1" fill="#2a2926"/><rect x="9" y="15" width="3" height="1" fill="#ffff55"/><rect x="12" y="15" width="1" height="1" fill="#2a2926"/><rect x="13" y="15" width="3" height="1" fill="#ffffff"/></svg>
