<svg xmlns="http://www.w3.org/2000/svg" width="120" height="120" viewBox="0 0 120 120" fill="none"><ellipse cx="60" cy="112" rx="30" ry="4" fill="#1D211C" fill-opacity="0.08"/><ellipse cx="46" cy="105" rx="9" ry="5" fill="#2F8F52" stroke="#1D211C" stroke-width="2.5"/><ellipse cx="74" cy="105" rx="9" ry="5" fill="#2F8F52" stroke="#1D211C" stroke-width="2.5"/><path d="M60 38 C60 32 60 28 61 21" stroke="#1D211C" stroke-width="2.5" fill="none" stroke-linecap="round"/><path d="M61 23 C56 13 44 11 37 16 C41 24 52 27 61 23 Z" fill="#86D46A" stroke="#1D211C" stroke-width="2.5" stroke-linejoin="round"/><path d="M61 21 C66 10 80 7 88 13 C84 22 70 26 61 21 Z" fill="#86D46A" stroke="#1D211C" stroke-width="2.5" stroke-linejoin="round"/><path d="M60 36 C82 36 96 54 96 74 C96 94 80 106 60 106 C40 106 24 94 24 74 C24 54 38 36 60 36 Z" fill="#4CB871" stroke="#1D211C" stroke-width="3"/><ellipse cx="60" cy="84" rx="21" ry="15" fill="#C6EBCF"/><path d="M40 50 C44 45 49 43 54 42" stroke="#FFFFFF" stroke-opacity="0.55" stroke-width="3" fill="none" stroke-linecap="round"/><ellipse cx="49" cy="66" rx="4.2" ry="5.2" fill="#1D211C"/><circle cx="50.6" cy="63.8" r="1.5" fill="#FFFFFF"/><ellipse cx="71" cy="66" rx="4.2" ry="5.2" fill="#1D211C"/><circle cx="72.6" cy="63.8" r="1.5" fill="#FFFFFF"/><ellipse cx="40" cy="76" rx="5.5" ry="3.2" fill="#FF8A7A" fill-opacity="0.55"/><ellipse cx="80" cy="76" rx="5.5" ry="3.2" fill="#FF8A7A" fill-opacity="0.55"/><path d="M53 75 Q60 81 67 75" stroke="#1D211C" stroke-width="2.6" fill="none" stroke-linecap="round"/><path d="M34 50 C34 30 86 30 86 50 Z" fill="#FFC83D" stroke="#1D211C" stroke-width="2.6" stroke-linejoin="round"/><rect x="28" y="48" width="64" height="7" rx="3.5" fill="#FFC83D" stroke="#1D211C" stroke-width="2.6"/><path d="M60 32 V48" stroke="#1D211C" stroke-width="2.2" stroke-linecap="round"/><path d="M86 92 l14 -14" stroke="#1D211C" stroke-width="7" stroke-linecap="round"/><path d="M86 92 l14 -14" stroke="#9CA3AF" stroke-width="3" stroke-linecap="round"/><circle cx="102" cy="76" r="5" fill="none" stroke="#1D211C" stroke-width="2.6"/><ellipse cx="86" cy="92" rx="6" ry="5" fill="#4CB871" stroke="#1D211C" stroke-width="2.5"/></svg>
